<?xml version="1.0" encoding="utf-8"?>
<!DOCTYPE svg PUBLIC "-//W3C//DTD SVG 1.1//EN" "http://www.w3.org/Graphics/SVG/1.1/DTD/svg11.dtd">
<svg version="1.1" width="590px" height="590px" xml:space="preserve" xmlns="http://www.w3.org/2000/svg">
	<path fill="#ffffff" opacity="0.2" d="M294.319,0C131.772,0,0,131.747,0,294.272 c0,162.521,131.772,294.271,294.319,294.271s292.823-131.751,292.823-294.271C587.143,131.747,468.188,0,294.319,0z M399.417,118.409l10.489-27.094c0,0,4.24-15.6,5.727-26.702c5.115-2.409,25.739,11.872,43.218,30.194 c-11.798,43.698-39.33,41.076-39.33,41.076S396.796,135.444,399.417,118.409z M348.726,117.965 c2.622-5.24,9.176-7.863,15.732-10.481c6.556-2.627,0,11.794-1.312,19.658c-1.31,7.863-2.622,11.799,6.557,20.975 c9.175,9.181-17.045,2.627-23.6-2.623C339.549,140.249,348.726,117.965,348.726,117.965z M229.986,373.575 c-1.312,6.555-13.671,22.28-18.915,32.766c-5.245,10.489-7.867,14.417-14.421,19.657c-6.554,5.249-10.488,14.425-10.488,14.425 l1.686,22.28c0,0,6.555,14.421,10.489,20.975c3.933,6.554-7.867,41.945-7.867,41.945c-11.363-2.183-22.224-5.24-26.158-15.734 c-3.933-10.48-9.613-10.48-8.301-22.279c1.31-11.795-18.356-26.216-22.288-32.77c-3.932-6.554-9.177-15.73-9.177-22.283 c0-6.559-14.423-15.727-14.423-15.727s-26.22-11.799-30.152-17.044c-3.932-5.245-7.864-27.524-9.177-36.695 c-1.312-9.182,3.933-32.773,3.933-32.773s10.489-7.868,3.934-14.422c-6.554-6.558-7.867-23.589-7.867-23.589l-11.798-13.107 c0,0-9.177-13.111-10.489-19.666c-1.31-6.549,0-10.485,1.312-17.043c1.308-6.554-2.622-18.349-2.622-24.897 c48.944-120.09,131.1-148.127,131.1-148.127l6.554,27.533c0,0-14.42,3.931-22.287,1.309c-7.866-2.622-11.798-2.622-11.798-2.622 l-10.49,14.417c0,0-3.932,9.176-5.244,14.417c-1.31,5.245,2.622,13.112,2.622,13.112s18.356,1.31,18.356-3.932 c0-5.24-2.625-7.867-2.625-7.867l-2.619-9.172c0,0,11.798-6.558,43.262-3.936c31.464,2.623,19.665,24.907,32.775,30.148 c13.11,5.245-10.488,23.598-15.732,34.083c-5.245,10.486-13.111-13.107-13.111-13.107s7.866-9.181-5.243-11.799 c-13.111-2.618-15.732,14.421-9.176,13.103c6.555-1.304,7.865,7.868,6.555,14.422c-1.312,6.554-1.312,14.422-7.867,28.843 c-6.554,14.416-31.463,14.416-31.463,14.416s3.932,6.555,7.864,14.422c3.935,7.862-1.31,26.211-1.31,31.456 c0,5.244-15.733-9.177-18.354-22.28c-2.622-13.112-10.488-8.307-15.732-6.993c-5.242,1.31-22.287,5.245-24.909-1.313 c-2.623-6.554-26.218,12.233-32.774,16.166c-6.555,3.936-3.933,14.421,6.556,9.176c10.486-5.24,19.663-1.31,17.041,9.176 c-2.622,10.486-13.108,3.932-11.798,10.486c1.312,6.554,11.798,13.111,14.42,22.288c2.622,9.172,27.532-3.932,35.398-7.863 c7.864-3.936,30.152-7.871,32.774,2.618c2.623,10.485,32.026,19.657,41.203,22.279c9.177,2.623,27.529,3.936,38.021,14.417 C249.651,347.355,231.299,367.022,229.986,373.575z M284.488,66.848c-1.312,13.112-24.036,32.774-21.414,38.014 c2.623,5.24,1.749,45.882-16.606,26.216c-18.354-19.662-36.709-47.186-35.396-60.299c0.263-2.644,0.572-6.767,0.876-11.329 c27.825-25.824,90.635-20.536,93.952-14.447C298.034,58.111,285.8,53.744,284.488,66.848z M314.64,144.185 c-3.933-6.554,9.177-10.485,9.177-10.485c18.354,3.932,11.362,17.044,10.049,22.285C332.556,161.23,318.574,150.744,314.64,144.185z M521.779,300.604c0,0,10.086,14.887,24.472,13.982c-9.445,109.602-100.948,180.016-100.948,180.016 c-13.986-13.982-6.99-26.216-6.99-26.216l8.427-20.975l2.185-35.388c0,0-4.495-36.704-39.455-19.231 c-37.584,9.611-21.849,14.108-59.869,16.735C311.582,412.146,326,335.562,326,335.562c-2.184-31.465,3.498-23.593,3.498-48.069 c0-24.467,80.408-10.48,80.408-10.48c52.441,34.957,59.432-7.867,59.432-7.867l38.455-13.977l3.497-17.482l-20.975-24.464 l-31.464-13.985c0,0-14.421,9.181,0,31.46c0,0-4.807,25.346-16.605,18.792l-32.339-39.758c0,0-10.924,18.783-28.404,29.269 c-17.48,10.489-47.197-0.431-47.197-0.431s-9.614-29.716,8.741-38.893l27.095-0.435c0,0-5.683-15.296-2.186-29.278 c3.495-13.978,11.363-1.744,25.346-12.234c13.984-10.48,23.598,20.541,44.573,17.044c20.977-3.501,10.488-6.993,24.474-13.982 c13.984-6.994,24.47,13.982,24.47,13.982l27.969,3.497c0,0-18.011-48.023-24.312-54.33c-0.715-0.13-1.359-0.095-1.91,0.149 c0.332-1.104,0.999-1.062,1.91-0.149c16.236,2.949,72.483,99.273,55.903,156.957c-5.785-2.592-10.615-4.758-10.615-4.758h-34.961 L521.779,300.604z"/>
</svg>
